<svg width="94" height="23" viewBox="0 0 94 23" fill="none" xmlns="http://www.w3.org/2000/svg">
<path d="M6.05455 18H1.53409V4.03636H6.19773C7.56591 4.03636 8.74091 4.31591 9.72273 4.875C10.7045 5.42954 11.4568 6.22727 11.9795 7.26818C12.5068 8.30454 12.7705 9.54773 12.7705 10.9977C12.7705 12.4523 12.5045 13.7023 11.9727 14.7477C11.4455 15.7932 10.6818 16.5977 9.68182 17.1614C8.68182 17.7205 7.47273 18 6.05455 18ZM3.64091 16.1591H5.93864C7.00227 16.1591 7.88636 15.9591 8.59091 15.5591C9.29546 15.1545 9.82273 14.5705 10.1727 13.8068C10.5227 13.0386 10.6977 12.1023 10.6977 10.9977C10.6977 9.90227 10.5227 8.97273 10.1727 8.20909C9.82727 7.44545 9.31136 6.86591 8.625 6.47045C7.93864 6.075 7.08636 5.87727 6.06818 5.87727H3.64091V16.1591Z" fill="#F4F4F4"/>
<path d="M18.2744 18.2318C17.6108 18.2318 17.0108 18.1091 16.4744 17.8636C15.9381 17.6136 15.5131 17.2523 15.1994 16.7795C14.8903 16.3068 14.7358 15.7273 14.7358 15.0409C14.7358 14.45 14.8494 13.9636 15.0767 13.5818C15.304 13.2 15.6108 12.8977 15.9972 12.675C16.3835 12.4523 16.8153 12.2841 17.2926 12.1705C17.7699 12.0568 18.2563 11.9705 18.7517 11.9114C19.379 11.8386 19.8881 11.7795 20.279 11.7341C20.6699 11.6841 20.954 11.6045 21.1313 11.4955C21.3085 11.3864 21.3972 11.2091 21.3972 10.9636V10.9159C21.3972 10.3205 21.229 9.85909 20.8926 9.53182C20.5608 9.20454 20.0653 9.04091 19.4063 9.04091C18.7199 9.04091 18.179 9.19318 17.7835 9.49773C17.3926 9.79773 17.1222 10.1318 16.9722 10.5L15.0563 10.0636C15.2835 9.42727 15.6153 8.91364 16.0517 8.52273C16.4926 8.12727 16.9994 7.84091 17.5722 7.66364C18.1449 7.48182 18.7472 7.39091 19.379 7.39091C19.7972 7.39091 20.2403 7.44091 20.7085 7.54091C21.1813 7.63636 21.6222 7.81364 22.0313 8.07273C22.4449 8.33182 22.7835 8.70227 23.0472 9.18409C23.3108 9.66136 23.4426 10.2818 23.4426 11.0455V18H21.4517V16.5682H21.3699C21.2381 16.8318 21.0403 17.0909 20.7767 17.3455C20.5131 17.6 20.1744 17.8114 19.7608 17.9795C19.3472 18.1477 18.8517 18.2318 18.2744 18.2318ZM18.7176 16.5955C19.2813 16.5955 19.7631 16.4841 20.1631 16.2614C20.5676 16.0386 20.8744 15.7477 21.0835 15.3886C21.2972 15.025 21.404 14.6364 21.404 14.2227V12.8727C21.3313 12.9455 21.1903 13.0136 20.9813 13.0773C20.7767 13.1364 20.5426 13.1886 20.279 13.2341C20.0153 13.275 19.7585 13.3136 19.5085 13.35C19.2585 13.3818 19.0494 13.4091 18.8813 13.4318C18.4858 13.4818 18.1244 13.5659 17.7972 13.6841C17.4744 13.8023 17.2153 13.9727 17.0199 14.1955C16.829 14.4136 16.7335 14.7045 16.7335 15.0682C16.7335 15.5727 16.9199 15.9545 17.2926 16.2136C17.6653 16.4682 18.1403 16.5955 18.7176 16.5955ZM31.142 7.52727V9.16364H25.2239V7.52727H31.142ZM26.8466 18V6.31364C26.8466 5.65909 26.9898 5.11591 27.2761 4.68409C27.5625 4.24773 27.942 3.92273 28.4148 3.70909C28.8875 3.49091 29.4011 3.38182 29.9557 3.38182C30.3648 3.38182 30.7148 3.41591 31.0057 3.48409C31.2966 3.54773 31.5125 3.60682 31.6534 3.66136L31.1761 5.31136C31.0807 5.28409 30.958 5.25227 30.808 5.21591C30.658 5.175 30.4761 5.15454 30.2625 5.15454C29.767 5.15454 29.4125 5.27727 29.1989 5.52273C28.9898 5.76818 28.8852 6.12273 28.8852 6.58636V18H26.8466ZM38.2295 7.52727V9.16364H32.3114V7.52727H38.2295ZM33.9341 18V6.31364C33.9341 5.65909 34.0773 5.11591 34.3636 4.68409C34.65 4.24773 35.0295 3.92273 35.5023 3.70909C35.975 3.49091 36.4886 3.38182 37.0432 3.38182C37.4523 3.38182 37.8023 3.41591 38.0932 3.48409C38.3841 3.54773 38.6 3.60682 38.7409 3.66136L38.2636 5.31136C38.1682 5.28409 38.0455 5.25227 37.8955 5.21591C37.7455 5.175 37.5636 5.15454 37.35 5.15454C36.8545 5.15454 36.5 5.27727 36.2864 5.52273C36.0773 5.76818 35.9727 6.12273 35.9727 6.58636V18H33.9341ZM43.0619 18.2318C42.3983 18.2318 41.7983 18.1091 41.2619 17.8636C40.7256 17.6136 40.3006 17.2523 39.9869 16.7795C39.6778 16.3068 39.5233 15.7273 39.5233 15.0409C39.5233 14.45 39.6369 13.9636 39.8642 13.5818C40.0915 13.2 40.3983 12.8977 40.7847 12.675C41.171 12.4523 41.6028 12.2841 42.0801 12.1705C42.5574 12.0568 43.0438 11.9705 43.5392 11.9114C44.1665 11.8386 44.6756 11.7795 45.0665 11.7341C45.4574 11.6841 45.7415 11.6045 45.9188 11.4955C46.096 11.3864 46.1847 11.2091 46.1847 10.9636V10.9159C46.1847 10.3205 46.0165 9.85909 45.6801 9.53182C45.3483 9.20454 44.8528 9.04091 44.1938 9.04091C43.5074 9.04091 42.9665 9.19318 42.571 9.49773C42.1801 9.79773 41.9097 10.1318 41.7597 10.5L39.8438 10.0636C40.071 9.42727 40.4028 8.91364 40.8392 8.52273C41.2801 8.12727 41.7869 7.84091 42.3597 7.66364C42.9324 7.48182 43.5347 7.39091 44.1665 7.39091C44.5847 7.39091 45.0278 7.44091 45.496 7.54091C45.9688 7.63636 46.4097 7.81364 46.8188 8.07273C47.2324 8.33182 47.571 8.70227 47.8347 9.18409C48.0983 9.66136 48.2301 10.2818 48.2301 11.0455V18H46.2392V16.5682H46.1574C46.0256 16.8318 45.8278 17.0909 45.5642 17.3455C45.3006 17.6 44.9619 17.8114 44.5483 17.9795C44.1347 18.1477 43.6392 18.2318 43.0619 18.2318ZM43.5051 16.5955C44.0688 16.5955 44.5506 16.4841 44.9506 16.2614C45.3551 16.0386 45.6619 15.7477 45.871 15.3886C46.0847 15.025 46.1915 14.6364 46.1915 14.2227V12.8727C46.1188 12.9455 45.9778 13.0136 45.7688 13.0773C45.5642 13.1364 45.3301 13.1886 45.0665 13.2341C44.8028 13.275 44.546 13.3136 44.296 13.35C44.046 13.3818 43.8369 13.4091 43.6688 13.4318C43.2733 13.4818 42.9119 13.5659 42.5847 13.6841C42.2619 13.8023 42.0028 13.9727 41.8074 14.1955C41.6165 14.4136 41.521 14.7045 41.521 15.0682C41.521 15.5727 41.7074 15.9545 42.0801 16.2136C42.4528 16.4682 42.9278 16.5955 43.5051 16.5955ZM56.1903 18V4.03636H64.8494V5.85H58.2972V10.1045H64.229V11.9114H58.2972V18H56.1903ZM70.2869 18.2318C69.6233 18.2318 69.0233 18.1091 68.4869 17.8636C67.9506 17.6136 67.5256 17.2523 67.2119 16.7795C66.9028 16.3068 66.7483 15.7273 66.7483 15.0409C66.7483 14.45 66.8619 13.9636 67.0892 13.5818C67.3165 13.2 67.6233 12.8977 68.0097 12.675C68.396 12.4523 68.8278 12.2841 69.3051 12.1705C69.7824 12.0568 70.2688 11.9705 70.7642 11.9114C71.3915 11.8386 71.9006 11.7795 72.2915 11.7341C72.6824 11.6841 72.9665 11.6045 73.1438 11.4955C73.321 11.3864 73.4097 11.2091 73.4097 10.9636V10.9159C73.4097 10.3205 73.2415 9.85909 72.9051 9.53182C72.5733 9.20454 72.0778 9.04091 71.4188 9.04091C70.7324 9.04091 70.1915 9.19318 69.796 9.49773C69.4051 9.79773 69.1347 10.1318 68.9847 10.5L67.0688 10.0636C67.296 9.42727 67.6278 8.91364 68.0642 8.52273C68.5051 8.12727 69.0119 7.84091 69.5847 7.66364C70.1574 7.48182 70.7597 7.39091 71.3915 7.39091C71.8097 7.39091 72.2528 7.44091 72.721 7.54091C73.1938 7.63636 73.6347 7.81364 74.0438 8.07273C74.4574 8.33182 74.796 8.70227 75.0597 9.18409C75.3233 9.66136 75.4551 10.2818 75.4551 11.0455V18H73.4642V16.5682H73.3824C73.2506 16.8318 73.0528 17.0909 72.7892 17.3455C72.5256 17.6 72.1869 17.8114 71.7733 17.9795C71.3597 18.1477 70.8642 18.2318 70.2869 18.2318ZM70.7301 16.5955C71.2938 16.5955 71.7756 16.4841 72.1756 16.2614C72.5801 16.0386 72.8869 15.7477 73.096 15.3886C73.3097 15.025 73.4165 14.6364 73.4165 14.2227V12.8727C73.3438 12.9455 73.2028 13.0136 72.9938 13.0773C72.7892 13.1364 72.5551 13.1886 72.2915 13.2341C72.0278 13.275 71.771 13.3136 71.521 13.35C71.271 13.3818 71.0619 13.4091 70.8938 13.4318C70.4983 13.4818 70.1369 13.5659 69.8097 13.6841C69.4869 13.8023 69.2278 13.9727 69.0324 14.1955C68.8415 14.4136 68.746 14.7045 68.746 15.0682C68.746 15.5727 68.9324 15.9545 69.3051 16.2136C69.6778 16.4682 70.1528 16.5955 70.7301 16.5955ZM78.1705 18V7.52727H80.2091V18H78.1705ZM79.2 5.91136C78.8455 5.91136 78.5409 5.79318 78.2864 5.55682C78.0364 5.31591 77.9114 5.02954 77.9114 4.69773C77.9114 4.36136 78.0364 4.075 78.2864 3.83864C78.5409 3.59773 78.8455 3.47727 79.2 3.47727C79.5545 3.47727 79.8568 3.59773 80.1068 3.83864C80.3614 4.075 80.4886 4.36136 80.4886 4.69773C80.4886 5.02954 80.3614 5.31591 80.1068 5.55682C79.8568 5.79318 79.5545 5.91136 79.2 5.91136ZM90.0222 21.9273V16.3705H89.8994C89.7767 16.5932 89.5994 16.8477 89.3676 17.1341C89.1403 17.4205 88.8267 17.6705 88.4267 17.8841C88.0267 18.0977 87.5085 18.2045 86.8722 18.2045C86.0267 18.2045 85.2722 17.9886 84.6085 17.5568C83.9494 17.1205 83.4313 16.5 83.054 15.6955C82.6813 14.8864 82.4949 13.9159 82.4949 12.7841C82.4949 11.6523 82.6835 10.6841 83.0608 9.87955C83.4426 9.075 83.9653 8.45909 84.629 8.03182C85.2926 7.60455 86.0449 7.39091 86.8858 7.39091C87.5358 7.39091 88.0585 7.5 88.454 7.71818C88.854 7.93182 89.1631 8.18182 89.3813 8.46818C89.604 8.75454 89.7767 9.00682 89.8994 9.225H90.0699V7.52727H92.0608V21.9273H90.0222ZM87.3222 16.4659C87.9085 16.4659 88.404 16.3114 88.8085 16.0023C89.2176 15.6886 89.5267 15.2545 89.7358 14.7C89.9494 14.1455 90.0563 13.5 90.0563 12.7636C90.0563 12.0364 89.9517 11.4 89.7426 10.8545C89.5335 10.3091 89.2267 9.88409 88.8222 9.57955C88.4176 9.275 87.9176 9.12273 87.3222 9.12273C86.7085 9.12273 86.1972 9.28182 85.7881 9.6C85.379 9.91818 85.0699 10.3523 84.8608 10.9023C84.6563 11.4523 84.554 12.0727 84.554 12.7636C84.554 13.4636 84.6585 14.0932 84.8676 14.6523C85.0767 15.2114 85.3858 15.6545 85.7949 15.9818C86.2085 16.3045 86.7176 16.4659 87.3222 16.4659Z" fill="#404040"/>
<path d="M7.30753 7.24914H2.00039V6H7.46569C8.58815 6.02496 9.71139 6.67739 10.5886 7.76669C11.4655 8.85573 12 10.2705 12 11.5853C12 13.1152 11.3629 14.4783 10.43 15.463C9.48463 16.4609 8.30978 16.9965 7.30753 16.9965H4.99361V15.7474H7.30753H7.38619L7.46389 15.7351C8.70207 15.5391 9.61722 14.9009 10.1834 14.0234C10.7336 13.1707 10.9169 12.1543 10.8469 11.212C10.7769 10.2708 10.4489 9.32254 9.87462 8.58357C9.29171 7.83346 8.42003 7.26555 7.32238 7.24925L7.31496 7.24914H7.30753Z" stroke="#404040" stroke-width="2"/>
</svg>
